HIERARCHY
ROOT hip
{
  OFFSET 0 0 0
  CHANNELS 6 Xposition Yposition Zposition Zrotation Yrotation Xrotation
  JOINT abdomen
  {
    OFFSET 0 20.6881 -0.73152
    CHANNELS 3 Zrotation Xrotation Yrotation
    JOINT chest
    {
      OFFSET 0 11.7043 -0.48768
      CHANNELS 3 Zrotation Xrotation Yrotation
      JOINT neck
      {
        OFFSET 0 22.1894 -2.19456
        CHANNELS 3 Zrotation Xrotation Yrotation
        JOINT head
        {
          OFFSET -0.24384 7.07133 1.2192
          CHANNELS 3 Zrotation Xrotation Yrotation
          JOINT leftEye
          {
            OFFSET 4.14528 8.04674 8.04672
            CHANNELS 3 Zrotation Xrotation Yrotation
            End Site
            {
              OFFSET 1 0 0
            }
          }
          JOINT rightEye
          {
            OFFSET -3.6576 8.04674 8.04672
            CHANNELS 3 Zrotation Xrotation Yrotation
            End Site
            {
              OFFSET 1 0 0
            }
          }
        }
      }
      JOINT rCollar
      {
        OFFSET -2.68224 19.2634 -4.8768
        CHANNELS 3 Zrotation Xrotation Yrotation
        JOINT rShldr
        {
          OFFSET -8.77824 -1.95073 1.46304
          CHANNELS 3 Zrotation Xrotation Yrotation
          JOINT rForeArm
          {
            OFFSET -28.1742 -1.7115 0.48768
            CHANNELS 3 Zrotation Xrotation Yrotation
            JOINT rHand
            {
              OFFSET -22.5879 0.773209 7.07136
              CHANNELS 3 Zrotation Xrotation Yrotation
              JOINT rThumb1
              {
                OFFSET -1.2192 -0.487915 3.41376
                CHANNELS 3 Zrotation Xrotation Yrotation
                JOINT rThumb2
                {
                  OFFSET -3.37035 -0.52449 3.41376
                  CHANNELS 3 Zrotation Xrotation Yrotation
                  End Site
                  {
                    OFFSET -1.78271 -1.18214 1.43049
                  }
                }
              }
              JOINT rIndex1
              {
                OFFSET -7.75947 0.938293 5.60832
                CHANNELS 3 Zrotation Xrotation Yrotation
                JOINT rIndex2
                {
                  OFFSET -2.54057 -0.884171 1.56538
                  CHANNELS 3 Zrotation Xrotation Yrotation
                  End Site
                  {
                    OFFSET -1.62519 -0.234802 1.16502
                  }
                }
              }
              JOINT rMid1
              {
                OFFSET -8.24714 1.18213 3.41376
                CHANNELS 3 Zrotation Xrotation Yrotation
                JOINT rMid2
                {
                  OFFSET -3.10165 -0.590103 1.0647
                  CHANNELS 3 Zrotation Xrotation Yrotation
                  End Site
                  {
                    OFFSET -2.48547 -0.328903 0.83742
                  }
                }
              }
              JOINT rRing1
              {
                OFFSET -8.82822 0.546677 1.51678
                CHANNELS 3 Zrotation Xrotation Yrotation
                JOINT rRing2
                {
                  OFFSET -2.60934 -0.819778 -0.0198488
                  CHANNELS 3 Zrotation Xrotation Yrotation
                  End Site
                  {
                    OFFSET -2.33842 -0.294052 0.168128
                  }
                }
              }
              JOINT rPinky1
              {
                OFFSET -8.27202 -0.0477905 -0.4584
                CHANNELS 3 Zrotation Xrotation Yrotation
                JOINT rPinky2
                {
                  OFFSET -1.82734 -0.647385 -0.700984
                  CHANNELS 3 Zrotation Xrotation Yrotation
                  End Site
                  {
                    OFFSET -1.69225 -0.51767 -0.607171
                  }
                }
              }
            }
          }
        }
      }
      JOINT lCollar
      {
        OFFSET 2.68224 19.2634 -4.8768
        CHANNELS 3 Zrotation Xrotation Yrotation
        JOINT lShldr
        {
          OFFSET 8.77824 -1.95073 1.46304
          CHANNELS 3 Zrotation Xrotation Yrotation
          JOINT lForeArm
          {
            OFFSET 28.1742 -1.7115 0.48768
            CHANNELS 3 Zrotation Xrotation Yrotation
            JOINT lHand
            {
              OFFSET 22.5879 0.773209 7.07136
              CHANNELS 3 Zrotation Xrotation Yrotation
              JOINT lThumb1
              {
                OFFSET 1.2192 -0.487915 3.41376
                CHANNELS 3 Zrotation Xrotation Yrotation
                JOINT lThumb2
                {
                  OFFSET 3.37035 -0.52449 3.41376
                  CHANNELS 3 Zrotation Xrotation Yrotation
                  End Site
                  {
                    OFFSET 1.78271 -1.18214 1.43049
                  }
                }
              }
              JOINT lIndex1
              {
                OFFSET 7.75947 0.938293 5.60832
                CHANNELS 3 Zrotation Xrotation Yrotation
                JOINT lIndex2
                {
                  OFFSET 2.54057 -0.884171 1.56538
                  CHANNELS 3 Zrotation Xrotation Yrotation
                  End Site
                  {
                    OFFSET 1.62519 -0.234802 1.16502
                  }
                }
              }
              JOINT lMid1
              {
                OFFSET 8.24714 1.18213 3.41376
                CHANNELS 3 Zrotation Xrotation Yrotation
                JOINT lMid2
                {
                  OFFSET 3.10165 -0.590103 1.0647
                  CHANNELS 3 Zrotation Xrotation Yrotation
                  End Site
                  {
                    OFFSET 2.48547 -0.328903 0.83742
                  }
                }
              }
              JOINT lRing1
              {
                OFFSET 8.82822 0.546677 1.51678
                CHANNELS 3 Zrotation Xrotation Yrotation
                JOINT lRing2
                {
                  OFFSET 2.60934 -0.819778 -0.0198488
                  CHANNELS 3 Zrotation Xrotation Yrotation
                  End Site
                  {
                    OFFSET 2.33842 -0.294052 0.168128
                  }
                }
              }
              JOINT lPinky1
              {
                OFFSET 8.27202 -0.0477905 -0.4584
                CHANNELS 3 Zrotation Xrotation Yrotation
                JOINT lPinky2
                {
                  OFFSET 1.82734 -0.647385 -0.700984
                  CHANNELS 3 Zrotation Xrotation Yrotation
                  End Site
                  {
                    OFFSET 1.69225 -0.51767 -0.607171
                  }
                }
              }
            }
          }
        }
      }
    }
  }
  JOINT rButtock
  {
    OFFSET -8.77824 4.35084 1.2192
    CHANNELS 3 Zrotation Xrotation Yrotation
    JOINT rThigh
    {
      OFFSET 0 -1.70687 -2.19456
      CHANNELS 3 Zrotation Xrotation Yrotation
      JOINT rShin
      {
        OFFSET 0 -36.8199 0.73152
        CHANNELS 3 Zrotation Xrotation Yrotation
        JOINT rFoot
        {
          OFFSET 0.73152 -45.1104 -5.12064
          CHANNELS 3 Zrotation Xrotation Yrotation
          End Site
          {
            OFFSET -1.1221 -3.69964 12.103
          }
        }
      }
    }
  }
  JOINT lButtock
  {
    OFFSET 8.77824 4.35084 1.2192
    CHANNELS 3 Zrotation Xrotation Yrotation
    JOINT lThigh
    {
      OFFSET 0 -1.70687 -2.19456
      CHANNELS 3 Zrotation Xrotation Yrotation
      JOINT lShin
      {
        OFFSET 0 -36.8199 0.73152
        CHANNELS 3 Zrotation Xrotation Yrotation
        JOINT lFoot
        {
          OFFSET -0.73152 -45.1104 -5.12064
          CHANNELS 3 Zrotation Xrotation Yrotation
          End Site
          {
            OFFSET 1.1221 -3.69964 12.103
          }
        }
      }
    }
  }
}
MOTION
Frames:	4
Frame Time:	0.03333
-10.879532560025572 38.876644453768854 -11.67348830332048 -2.3369243144989014 52.69889450073242 3.1855475902557373 -2.810584783554077 18.291959762573242 2.753657817840576 4.921266078948975 -8.880623817443848 0.7526499629020691 -8.94316577911377 23.10550880432129 -16.068052291870117 17.67155647277832 -33.94844055175781 -27.727331161499023 -0.29340827465057373 0.09003002941608429 -0.15703240036964417 0.08174536377191544 -0.07178367674350739 0.19754235446453094 0.001005943980999291 -0.20539870858192444 -0.2927471101284027 49.79662322998047 4.928269386291504 24.899925231933594 -22.323467254638672 -16.601600646972656 45.288509368896484 -1.228963017463684 27.734811782836914 3.9725825786590576 0.026526469737291336 -0.06563472002744675 -0.25933271646499634 -0.14107637107372284 -0.2199869602918625 -0.30966687202453613 0.07946071773767471 0.25199535489082336 -0.2467976063489914 7.551217555999756 5.759143352508545 0.5810050964355469 -0.17143641412258148 0.19550587236881256 0.0014149271883070469 3.1604888439178467 0.6898092031478882 0.10190434753894806 -0.19057175517082214 0.3497897982597351 -0.24806906282901764 10.079071998596191 0.8038010001182556 -0.06568306684494019 -0.13281218707561493 0.1903243213891983 -0.156117245554924 2.43304705619812 -0.670362651348114 -0.3853115141391754 0.1177925392985344 -0.1435318887233734 0.16248397529125214 -48.72769546508789 46.796661376953125 -36.95917892456055 25.988893508911133 -44.71610641479492 -93.7036361694336 2.0342864990234375 -36.92049026489258 5.856114864349365 -0.136593759059906 -0.23358124494552612 0.0714813768863678 -0.3012230694293976 -0.14473724365234375 -0.14333733916282654 -0.11315209418535233 0.18283994495868683 -0.13379208743572235 -7.561706066131592 5.477974891662598 -0.6104333400726318 -0.019822996109724045 -0.08589119464159012 0.022310201078653336 -2.924794912338257 0.8280969262123108 -0.210787832736969 0.17893673479557037 -0.4442700445652008 0.12286671996116638 -9.991256713867188 0.8878785967826843 -0.07726988941431046 0.16809387505054474 0.09773701429367065 0.07443026453256607 -1.9547765254974365 -0.8271034359931946 0.3012303411960602 -0.041227202862501144 0.15561650693416595 0.22354616224765778 -22.655601501464844 -23.980405807495117 -2.3090057373046875 -0.9095874428749084 63.59111404418945 1.2392032146453857 -1.4739022254943848 1.876894474029541 -13.516047477722168 0.10317658632993698 -0.1507086157798767 -0.28366056084632874 18.449602127075195 -58.57639694213867 9.974916458129883 2.5348193645477295 71.2736587524414 -2.4352529048919678 5.137078762054443 -8.475031852722168 16.67732810974121
-10.496495124484433 39.026324634335104 -12.337970620522869 -1.020578384399414 50.672019958496094 4.358130931854248 -4.591440677642822 18.461814880371094 3.50742244720459 4.823086738586426 -8.823107719421387 0.877167820930481 -8.872751235961914 22.977602005004883 -15.766155242919922 17.501501083374023 -34.032222747802734 -26.982358932495117 -0.22875873744487762 0.057538826018571854 -0.11635350435972214 0.04698164388537407 -0.0650821253657341 0.22949914634227753 0.0015946055063977838 -0.16594816744327545 -0.2175278514623642 48.735618591308594 7.554685592651367 25.545427322387695 -21.93977165222168 -15.871847152709961 44.20269012451172 -1.3539950847625732 29.203535079956055 4.306291580200195 0.08071751892566681 -0.10975144058465958 -0.22414393723011017 -0.12891772389411926 -0.22285912930965424 -0.21057838201522827 0.09776854515075684 0.2252810001373291 -0.20519649982452393 7.579143524169922 5.766602993011475 0.5450676679611206 -0.1910855621099472 0.23135989904403687 0.06647265702486038 3.1069743633270264 0.7437294125556946 0.08818606287240982 -0.1934116631746292 0.35083529353141785 -0.2711013853549957 10.031639099121094 0.7612056136131287 -0.17289018630981445 -0.03525245934724808 0.21807502210140228 -0.1163892149925232 2.486928701400757 -0.6648871302604675 -0.42193153500556946 0.08021840453147888 -0.09765356034040451 0.13550087809562683 -46.301055908203125 43.32207107543945 -39.72926330566406 25.910829544067383 -45.33195114135742 -94.56698608398438 2.114459276199341 -36.200660705566406 5.854773998260498 -0.11609257012605667 -0.19194665551185608 0.11787978559732437 -0.29664698243141174 -0.08414389938116074 -0.1348879337310791 -0.12963029742240906 0.17733266949653625 -0.15113981068134308 -7.642063617706299 5.5057597160339355 -0.567670464515686 -0.09337327629327774 -0.07352790981531143 0.0026591464411467314 -2.924760580062866 0.7553310990333557 -0.20821049809455872 0.1275428831577301 -0.45063766837120056 0.1781601756811142 -9.967059135437012 0.8659699559211731 -0.0195233765989542 0.12629984319210052 0.0720813199877739 0.011015147902071476 -1.8787800073623657 -0.8394035696983337 0.285007506608963 -0.042769476771354675 0.06038370355963707 0.17908190190792084 -23.643112182617188 -28.1748104095459 -4.735762119293213 -1.434792399406433 68.23761749267578 1.6289591789245605 -1.2416688203811646 3.3244521617889404 -12.23355484008789 0.0893157497048378 -0.17929069697856903 -0.29687759280204773 13.325173377990723 -57.97419357299805 4.704626560211182 2.6915063858032227 70.57593536376953 -2.6503355503082275 5.251877784729004 -9.172743797302246 16.801841735839844
-10.107769955633673 39.41051936005373 -12.881456243300189 0.1791037917137146 48.568416595458984 5.386714935302734 -6.934206008911133 18.61497688293457 4.50431489944458 4.895687103271484 -8.811331748962402 1.1008126735687256 -8.81982707977295 22.802270889282227 -15.43891429901123 17.351003646850586 -33.82606506347656 -26.27863121032715 -0.1199483871459961 0.025646233931183815 -0.09940038621425629 -0.010619078762829304 -0.04469813033938408 0.2246563881635666 -0.008733317255973816 -0.06711047887802124 -0.12597014009952545 47.92262268066406 9.783942222595215 26.478958129882812 -21.4162654876709 -14.985381126403809 42.76624298095703 -1.498437523841858 31.07833480834961 4.748095989227295 0.12651415169239044 -0.13772523403167725 -0.20315341651439667 -0.07462291419506073 -0.19165930151939392 -0.10844758152961731 0.0808705985546112 0.22401440143585205 -0.21315909922122955 7.63113260269165 5.759776592254639 0.4453858435153961 -0.18421125411987305 0.230088010430336 0.061994556337594986 3.0193958282470703 0.8191086649894714 0.07201631367206573 -0.13487407565116882 0.2905324697494507 -0.27686721086502075 10.011153221130371 0.7417551279067993 -0.24825958907604218 0.04399818181991577 0.2133006751537323 -0.10680093616247177 2.531248092651367 -0.6367306113243103 -0.43804270029067993 0.035545025020837784 -0.014759008772671223 0.12540483474731445 -43.58774948120117 39.325870513916016 -43.28010940551758 25.887786865234375 -45.905452728271484 -95.08760833740234 2.141071081161499 -35.254188537597656 5.80809211730957 -0.04960567504167557 -0.12102558463811874 0.2025541514158249 -0.236753448843956 0.030523162335157394 -0.14630591869354248 -0.17590178549289703 0.11542226374149323 -0.16998517513275146 -7.721871852874756 5.5024919509887695 -0.45721426606178284 -0.12891212105751038 -0.0632171705365181 -0.056277673691511154 -2.909998655319214 0.6839324831962585 -0.26991814374923706 0.0685492679476738 -0.33561965823173523 0.19205360114574432 -9.98551082611084 0.764168381690979 0.021323848515748978 0.07315270602703094 0.051026586443185806 -0.055345021188259125 -1.835790991783142 -0.8243674635887146 0.2669137120246887 0.027978340163826942 -0.00325393327511847 0.10727038234472275 -24.66230010986328 -32.613258361816406 -8.05373477935791 -2.234647750854492 72.58639526367188 2.342231512069702 -1.1398286819458008 4.455512523651123 -11.395237922668457 0.03137316182255745 -0.18629975616931915 -0.2675565183162689 7.387050628662109 -56.572532653808594 -0.903944730758667 2.6334784030914307 69.72325134277344 -2.6871864795684814 5.596238136291504 -9.95960807800293 17.26216697692871
-9.723713434524027 39.79561225564822 -13.199194509055067 1.292868971824646 46.174800872802734 6.34572696685791 -9.730685234069824 18.935823440551758 5.512347221374512 5.078217029571533 -8.876457214355469 1.3652801513671875 -8.79666805267334 22.653440475463867 -15.065202713012695 17.259601593017578 -33.64120101928711 -25.566165924072266 -0.03374291583895683 0.04464302584528923 -0.06992997974157333 -0.08535905927419662 -0.025550518184900284 0.185277059674263 0.008220277726650238 0.05912207439541817 -0.05394274368882179 47.5404167175293 11.757201194763184 27.50052833557129 -20.84879493713379 -14.087525367736816 41.29708480834961 -1.68092679977417 32.46221160888672 5.138123989105225 0.18571291863918304 -0.1614273488521576 -0.17964157462120056 -0.04542086273431778 -0.11042521148920059 -0.020121518522500992 0.06268420815467834 0.2022184431552887 -0.19812582433223724 7.658343315124512 5.715576648712158 0.34874090552330017 -0.14736582338809967 0.23193234205245972 0.03236435726284981 2.923569917678833 0.8882609009742737 0.08807018399238586 -0.08505763858556747 0.13867799937725067 -0.29898208379745483 10.013653755187988 0.7422313094139099 -0.2625501751899719 0.1428358554840088 0.2551930546760559 -0.10842391848564148 2.558647871017456 -0.5963376760482788 -0.4523007571697235 -0.002480987925082445 0.07516687363386154 0.11494507640600204 -40.87705993652344 34.44386291503906 -47.12318801879883 25.912622451782227 -46.431640625 -95.43050384521484 2.091062545776367 -34.1637077331543 5.632912635803223 0.0334930494427681 -0.02827729843556881 0.2553669512271881 -0.1556810438632965 0.13425925374031067 -0.14972347021102905 -0.23423898220062256 -0.02258181944489479 -0.1980709731578827 -7.81609582901001 5.490457057952881 -0.3198162913322449 -0.16949759423732758 -0.0813787505030632 -0.1191844567656517 -2.908186912536621 0.668177604675293 -0.34721729159355164 0.02453542686998844 -0.17903536558151245 0.1373739391565323 -10.080888748168945 0.6431607007980347 0.05783519893884659 0.011309828609228134 0.05246436223387718 -0.07587353885173798 -1.8619105815887451 -0.7748087644577026 0.19467751681804657 0.11785315722227097 -0.053425680845975876 0.019186146557331085 -26.393327713012695 -37.75988006591797 -12.718012809753418 -3.8218328952789307 77.87864685058594 3.9268791675567627 -1.013474464416504 5.151812553405762 -10.295222282409668 -0.0014416947960853577 -0.14568623900413513 -0.18887630105018616 1.110061526298523 -54.5123291015625 -6.329384803771973 2.4611546993255615 68.66405487060547 -2.6522257328033447 6.021691799163818 -10.993371963500977 17.854507446289062
